<?xml version="1.0" standalone="no"?>
<!DOCTYPE svg PUBLIC "-//W3C//DTD SVG 20010904//EN"
 "http://www.w3.org/TR/2001/REC-SVG-20010904/DTD/svg10.dtd">
<svg version="1.0" xmlns="http://www.w3.org/2000/svg"
 width="500.000000pt" height="500.000000pt" viewBox="0 0 500.000000 500.000000"
 preserveAspectRatio="xMidYMid meet">

<g transform="translate(0.000000,500.000000) scale(0.100000,-0.100000)"
fill="#000000" stroke="none">
<path d="M0 2500 l0 -2500 2500 0 2500 0 0 2500 0 2500 -2500 0 -2500 0 0
-2500z m3955 1223 c41 -61 118 -117 187 -134 51 -13 64 -29 25 -29 -13 0 -51
-14 -85 -31 -89 -44 -160 -133 -181 -226 -5 -23 -10 -32 -14 -23 -31 91 -42
114 -68 149 -46 65 -104 101 -219 138 -8 3 12 13 45 24 114 36 198 123 232
239 l16 55 14 -55 c7 -30 29 -78 48 -107z m-1265 122 c415 -68 783 -329 985
-700 37 -68 95 -197 95 -212 0 -16 -23 8 -57 60 -22 34 -51 71 -64 82 l-22 20
6 -25 c4 -14 9 -50 12 -80 7 -71 -8 -40 -25 53 -8 44 -20 76 -34 89 -26 25
-153 108 -165 108 -5 0 -5 -16 -1 -37 5 -20 12 -81 16 -135 8 -117 10 -116
-112 -67 -42 17 -96 37 -120 44 l-44 13 0 -34 c0 -19 -4 -34 -10 -34 -5 0 -10
17 -10 39 0 38 0 38 -57 54 -50 14 -223 47 -245 47 -5 0 -8 -24 -8 -52 0 -29
-5 -60 -10 -68 -7 -11 -10 5 -10 51 0 54 -3 68 -17 74 -10 3 -86 9 -170 12
l-153 6 0 -55 0 -55 98 -15 97 -16 -130 -2 c-160 -3 -249 -1 -339 10 -60 7
-72 6 -83 -8 -11 -16 -12 -16 -13 0 0 18 -18 21 -204 38 -60 5 -112 8 -114 5
-5 -5 16 -251 24 -278 4 -12 12 -15 30 -11 14 4 24 2 24 -4 0 -6 -10 -12 -22
-14 -18 -2 -22 -9 -20 -30 1 -16 -2 -28 -8 -28 -5 0 -10 9 -10 20 0 11 -4 20
-8 20 -4 0 -8 17 -8 38 0 20 -4 93 -9 161 l-8 123 -31 -5 c-17 -3 -72 -22
-121 -42 -88 -36 -181 -59 -142 -35 12 8 17 24 17 55 l0 45 -89 0 -89 0 -11
-50 c-6 -28 -11 -58 -11 -65 0 -8 -5 -15 -11 -15 -6 0 -8 11 -5 28 16 82 18
102 7 102 -12 0 -91 -101 -91 -117 0 -6 -7 -16 -15 -23 -24 -20 -19 16 10 79
14 30 23 56 20 59 -9 9 -257 -18 -347 -38 -132 -29 -198 -69 -198 -120 0 -52
116 -142 278 -217 55 -25 73 -37 70 -51 -6 -31 -50 -24 -146 23 -196 95 -282
174 -282 258 0 104 176 172 507 199 l151 12 73 110 c83 127 234 284 349 365
299 210 669 294 1030 236z m1589 -648 c18 -15 42 -27 54 -27 17 -1 12 -6 -18
-20 -44 -22 -85 -63 -85 -86 0 -8 -4 -14 -10 -14 -5 0 -10 6 -10 14 0 23 -46
72 -81 86 l-31 13 30 12 c35 15 70 51 84 85 l10 25 12 -30 c8 -17 28 -43 45
-58z m-1541 -195 c21 -7 21 -8 4 -18 -14 -9 -23 -8 -41 7 -20 17 -21 19 -5 18
11 -1 29 -4 42 -7z m-356 -99 c4 -66 28 -70 28 -4 l0 51 135 0 135 0 0 -220 0
-220 -23 -5 c-13 -4 -50 -5 -82 -3 l-60 3 -3 138 c-2 104 -6 137 -15 134 -8
-3 -12 -40 -12 -128 -1 -68 -2 -130 -3 -136 -1 -9 -26 -13 -82 -13 l-80 0 -1
88 c-1 106 -13 203 -22 182 -4 -8 -8 -71 -9 -140 l-3 -125 -82 -3 -83 -3 0
226 0 225 129 0 130 0 3 -47z m645 20 c42 -28 46 -48 44 -223 -3 -221 1 -210
-75 -209 -92 1 -101 7 -97 62 2 37 -1 47 -13 47 -13 0 -16 -11 -16 -50 l0 -51
-82 3 -83 3 3 175 c4 199 13 232 64 256 44 19 218 11 255 -13z m-947 -10 c0
-16 5 -113 10 -217 9 -152 8 -191 -2 -198 -7 -4 -46 -8 -85 -8 -69 0 -73 1
-73 23 0 12 -5 109 -10 215 -6 106 -8 197 -5 203 4 5 42 9 86 9 l79 0 0 -27z
m1333 0 c41 -6 43 -14 31 -106 -7 -46 -7 -46 -48 -49 l-41 -3 -10 -137 c-5
-75 -13 -139 -16 -143 -4 -3 -41 -3 -84 1 l-76 7 7 148 7 149 -37 0 c-22 0
-36 5 -37 13 -2 34 3 123 8 131 6 9 219 1 296 -11z m-1700 -35 c4 -24 9 -90
13 -147 l7 -104 82 7 82 6 7 -46 c12 -92 9 -103 -26 -108 -79 -13 -290 -21
-298 -11 -4 5 -13 100 -20 210 -7 110 -13 204 -14 210 -1 12 44 22 110 24 l52
1 5 -42z m-200 -43 c6 -49 5 -70 -3 -75 -7 -4 -68 -13 -136 -20 l-124 -13 0
-31 c0 -17 3 -48 7 -70 l6 -39 81 7 c45 3 106 9 137 12 l56 6 7 -32 c11 -55 7
-120 -6 -120 -7 0 -87 -9 -178 -20 -156 -19 -166 -19 -200 -2 -19 9 -40 28
-47 42 -7 14 -20 88 -29 163 -16 132 -16 138 3 169 10 18 30 38 44 45 22 11
341 53 364 48 6 -1 14 -32 18 -70z m2219 45 c98 -11 183 -20 189 -20 8 0 10
-18 5 -62 -3 -34 -8 -64 -11 -67 -3 -2 -64 1 -136 8 -120 12 -152 11 -137 -5
4 -3 59 -12 124 -20 65 -8 120 -17 122 -19 3 -2 1 -30 -3 -61 l-7 -57 -66 7
c-37 3 -95 9 -129 13 -42 4 -63 2 -63 -5 0 -13 26 -18 160 -33 58 -6 108 -16
111 -21 5 -8 -6 -116 -13 -123 -4 -5 -431 46 -437 51 -5 5 37 396 46 427 3 14
11 16 36 12 18 -3 112 -14 209 -25z m423 -281 c190 -97 265 -169 265 -254 0
-87 -187 -168 -422 -182 -76 -5 -88 -4 -94 11 -4 10 -3 21 2 26 5 5 60 16 123
25 344 50 401 140 177 280 -40 25 -115 64 -167 86 -52 22 -96 42 -98 44 -2 2
-1 15 3 29 l6 26 53 -21 c28 -11 97 -43 152 -70z m-1995 -158 c0 -14 -8 -21
-27 -23 -27 -3 -28 -6 -31 -65 l-3 -63 -34 0 -35 0 0 60 0 60 -35 0 c-28 0
-35 4 -35 20 0 16 8 20 63 23 144 8 137 8 137 -12z m215 -6 c16 -15 25 -36 25
-55 0 -51 -38 -80 -104 -80 -96 0 -138 38 -116 105 13 41 40 53 113 54 49 1
62 -3 82 -24z m255 5 c22 -22 24 -33 10 -59 -6 -11 -6 -30 0 -50 8 -30 8 -31
-24 -31 -25 0 -35 6 -44 25 -16 34 -69 36 -74 3 -2 -18 -11 -24 -35 -26 l-33
-3 0 80 0 81 90 0 c77 0 93 -3 110 -20z m120 -14 c0 -18 -3 -54 -6 -80 -7 -45
-8 -46 -41 -46 -28 0 -34 3 -29 16 3 9 6 45 6 80 l0 64 35 0 c33 0 35 -2 35
-34z m183 24 c30 0 37 -4 37 -20 0 -18 -7 -20 -60 -20 -33 0 -60 -4 -60 -10 0
-5 23 -10 50 -10 38 0 50 -4 50 -15 0 -11 -12 -15 -50 -15 -38 0 -50 -4 -50
-15 0 -12 13 -15 60 -15 53 0 60 -2 60 -20 0 -18 -7 -20 -79 -20 -112 0 -111
-1 -111 84 0 40 3 76 8 80 4 5 30 5 57 2 28 -3 67 -6 88 -6z m-1003 -25 c5 -3
10 -13 10 -22 0 -13 -9 -15 -55 -9 -35 4 -55 2 -55 -4 0 -5 18 -10 41 -10 78
0 104 -39 53 -79 -46 -36 -164 -25 -164 16 0 13 9 15 55 9 35 -4 55 -2 55 4 0
5 -18 10 -41 10 -49 0 -79 15 -79 39 0 54 118 84 180 46z m1219 7 c19 -9 37
-23 39 -31 4 -11 -7 -13 -59 -8 -41 4 -57 3 -44 -3 11 -5 30 -9 41 -9 34 -1
68 -34 60 -58 -16 -49 -142 -58 -179 -11 l-19 23 36 3 c21 2 44 -2 52 -9 10
-8 18 -9 25 -2 7 7 -1 13 -28 18 -59 11 -75 23 -71 53 6 49 83 67 147 34z
m-382 -39 c-3 -10 -5 -2 -5 17 0 19 2 27 5 18 2 -10 2 -26 0 -35z m-1653 -73
c4 -44 11 -78 15 -76 4 3 16 32 27 65 10 34 25 61 32 61 7 0 11 -4 8 -9 -6 -9
31 -130 44 -144 4 -4 19 10 34 31 14 21 39 51 55 66 20 19 27 34 24 49 -4 20
-3 20 9 6 12 -15 16 -14 48 7 35 25 58 24 24 0 -63 -46 -60 -36 -29 -109 28
-64 30 -66 50 -52 11 8 50 33 88 56 37 23 67 42 67 44 0 1 -7 22 -15 45 -18
50 -18 50 -5 50 6 0 10 -4 10 -9 0 -5 7 -25 15 -45 l15 -36 55 25 c30 13 55
19 55 14 0 -6 -22 -19 -50 -31 -31 -13 -50 -27 -50 -37 0 -13 123 -278 135
-289 2 -2 39 10 82 26 43 17 86 33 95 36 15 4 13 15 -17 103 -18 54 -30 102
-27 107 3 6 20 -34 38 -87 18 -53 35 -100 38 -105 3 -6 38 -2 83 9 43 10 90
18 106 19 32 0 31 -1 12 110 -16 93 -18 117 -9 107 4 -3 14 -50 23 -104 l16
-98 115 4 c63 2 117 5 119 7 2 2 3 37 2 79 -1 46 2 75 9 75 6 0 10 -31 10 -78
l0 -79 117 -6 c64 -4 118 -5 120 -3 2 2 10 36 17 75 8 40 17 75 21 79 5 4 5
-9 1 -27 -3 -19 -9 -59 -13 -88 l-6 -53 29 0 c16 0 63 -9 104 -19 48 -12 77
-15 81 -9 4 6 21 52 39 104 18 52 36 94 40 94 8 0 -11 -66 -44 -159 -20 -55
-20 -61 2 -61 9 0 44 -12 77 -26 95 -40 89 -41 122 18 33 59 113 233 113 247
0 4 -20 16 -45 25 -25 10 -45 22 -45 27 0 13 6 12 50 -11 22 -11 41 -20 44
-20 2 0 12 22 21 50 9 28 21 50 26 50 12 0 12 2 -7 -54 -9 -26 -14 -49 -12
-52 3 -2 42 -29 87 -59 l82 -54 30 66 c16 36 28 67 27 68 -2 1 -23 16 -47 34
-24 17 -37 31 -29 31 8 0 29 -11 48 -25 34 -25 35 -25 42 -5 11 29 20 24 14
-7 -5 -24 4 -38 53 -91 l59 -63 22 66 c12 36 19 72 16 80 -4 10 1 15 15 15 11
0 18 -3 16 -7 -3 -5 5 -39 18 -78 l23 -70 7 60 c8 74 11 85 26 85 20 0 -16
-196 -62 -331 -31 -92 -110 -248 -171 -337 -71 -103 -244 -275 -348 -346 -153
-105 -337 -184 -510 -222 -115 -25 -428 -26 -545 -2 -583 122 -1017 580 -1100
1163 -19 129 -19 141 -1 126 8 -7 16 -43 20 -91z"/>
<path d="M2298 3831 c-42 -6 -68 -17 -57 -23 2 -2 50 -2 107 0 80 3 102 6 102
18 0 15 -62 17 -152 5z"/>
<path d="M2470 3832 c0 -14 41 -20 142 -24 62 -3 75 -1 65 9 -16 16 -207 30
-207 15z"/>
<path d="M2137 3803 c-32 -9 -56 -17 -53 -20 7 -7 126 19 132 28 7 12 -9 10
-79 -8z"/>
<path d="M2710 3811 c0 -8 110 -32 136 -30 10 1 -116 39 -128 39 -5 0 -8 -4
-8 -9z"/>
<path d="M2305 3793 c-84 -6 -91 -9 -114 -62 -29 -68 -28 -71 22 -66 23 3 86
7 140 11 l97 6 0 59 0 59 -47 -2 c-27 -1 -70 -3 -98 -5z"/>
<path d="M2470 3742 l0 -60 98 -6 c53 -4 119 -9 145 -12 47 -5 48 -4 42 18
-10 32 -43 96 -52 101 -5 3 -59 8 -120 12 l-113 7 0 -60z"/>
<path d="M2048 3773 c7 -3 16 -2 19 1 4 3 -2 6 -13 5 -11 0 -14 -3 -6 -6z"/>
<path d="M2078 3760 c-78 -16 -91 -22 -120 -55 -18 -21 -42 -51 -52 -68 l-20
-30 25 6 c21 5 153 31 215 43 15 3 27 20 43 60 11 31 21 58 21 60 0 6 -17 4
-112 -16z"/>
<path d="M2755 3723 c12 -32 31 -60 41 -64 11 -4 60 -15 109 -24 50 -10 101
-20 114 -23 24 -5 24 -4 -9 41 -54 75 -70 86 -166 107 -49 11 -94 20 -101 20
-8 0 -4 -20 12 -57z"/>
<path d="M1865 3697 c-89 -40 -116 -58 -166 -110 -27 -28 -49 -55 -49 -59 0
-4 19 1 43 11 23 10 72 28 110 40 37 13 67 26 67 31 0 4 16 31 35 59 39 57 34
61 -40 28z"/>
<path d="M2999 3697 c13 -15 34 -43 46 -63 18 -31 33 -40 91 -59 38 -12 86
-30 108 -39 l38 -17 -20 28 c-55 76 -164 147 -257 169 l-30 7 24 -26z"/>
<path d="M2227 3651 c-61 -7 -77 -19 -77 -60 0 -21 3 -23 32 -17 18 4 86 9
150 13 65 3 119 9 119 12 1 3 2 18 3 34 l2 27 -86 -1 c-47 -1 -111 -5 -143 -8z"/>
<path d="M2470 3627 l0 -37 68 0 c37 0 105 -5 151 -10 47 -5 87 -8 89 -5 2 2
1 17 -3 33 -8 37 -18 40 -177 48 l-128 7 0 -36z"/>
<path d="M2030 3620 c-150 -32 -154 -33 -172 -71 -9 -19 -15 -35 -14 -36 0 -1
36 7 79 17 43 10 102 22 131 25 67 9 74 14 82 53 8 38 11 37 -106 12z"/>
<path d="M2790 3609 c5 -17 12 -34 14 -37 3 -2 51 -13 108 -23 57 -11 116 -24
132 -29 16 -6 31 -8 33 -6 2 2 -2 19 -10 38 -14 33 -18 35 -113 55 -55 12
-116 24 -136 28 l-37 6 9 -32z"/>
<path d="M1770 3550 c-127 -46 -146 -57 -163 -92 -9 -18 -15 -34 -14 -35 2 -1
54 17 116 41 102 39 115 47 128 76 7 18 12 34 11 35 -2 2 -37 -9 -78 -25z"/>
<path d="M3080 3573 c0 -4 5 -20 11 -37 10 -28 22 -35 128 -73 64 -23 117 -40
118 -39 1 1 -7 17 -18 35 -13 22 -38 41 -77 58 -76 34 -162 63 -162 56z"/>
<path d="M1579 3510 l-64 -60 47 25 c43 24 111 95 90 95 -5 0 -38 -27 -73 -60z"/>
<path d="M2203 3561 c-28 -4 -55 -10 -59 -13 -4 -4 -9 -31 -12 -59 -5 -51 -4
-52 19 -45 13 3 86 9 162 13 l137 6 0 54 0 53 -97 -1 c-54 -1 -121 -5 -150 -8z"/>
<path d="M2470 3517 l0 -54 143 -6 c78 -4 153 -10 166 -13 23 -7 23 -6 16 47
-4 30 -9 55 -10 57 -8 9 -141 22 -222 22 l-93 0 0 -53z"/>
<path d="M3279 3554 c20 -36 36 -50 86 -77 l50 -28 -45 42 c-25 22 -58 50 -74
62 -26 19 -28 19 -17 1z"/>
<path d="M2000 3531 c-47 -10 -104 -24 -127 -31 -39 -12 -43 -16 -53 -62 -7
-27 -10 -51 -7 -54 3 -3 43 4 89 15 47 11 108 23 135 27 28 3 56 9 62 13 6 4
14 31 18 59 7 61 13 59 -117 33z"/>
<path d="M2807 3503 c5 -50 23 -73 56 -73 11 0 71 -12 134 -26 63 -14 116 -24
118 -22 2 2 -1 25 -7 52 -8 40 -15 50 -42 61 -29 13 -133 36 -222 50 l-42 6 5
-48z"/>
<path d="M1740 3459 c-30 -10 -80 -30 -111 -45 -51 -24 -57 -30 -72 -77 -9
-28 -15 -52 -13 -54 1 -2 28 8 59 22 31 13 86 34 121 45 l65 21 10 50 c6 28
11 52 11 54 0 7 -11 5 -70 -16z"/>
<path d="M3126 3429 c8 -28 15 -53 17 -55 1 -2 50 -20 107 -42 58 -22 113 -43
122 -47 16 -6 16 -2 -3 52 l-19 59 -93 36 c-50 20 -104 39 -118 43 l-26 7 13
-53z"/>
<path d="M1534 3439 c-63 -40 -92 -67 -111 -104 l-16 -29 24 17 c13 9 47 30
76 47 45 26 93 83 81 96 -3 2 -27 -10 -54 -27z"/>
<path d="M3340 3467 c0 -30 27 -66 68 -89 26 -15 62 -37 80 -49 l33 -21 -22
36 c-20 34 -159 141 -159 123z"/>
<path d="M2271 3439 c-74 -5 -138 -12 -142 -16 -4 -5 -10 -66 -14 -137 l-8
-129 69 6 c38 4 115 9 171 13 79 5 103 10 105 22 2 8 2 68 0 133 -3 115 -4
119 -25 118 -12 -1 -83 -6 -156 -10z"/>
<path d="M2470 3316 l0 -134 103 -6 c56 -4 132 -9 170 -12 l67 -6 0 113 c0 63
-3 124 -6 136 -6 23 9 21 -256 38 l-78 5 0 -134z"/>
<path d="M2020 3409 c-25 -5 -84 -19 -131 -30 -100 -24 -93 -14 -105 -167 l-7
-90 32 -7 c25 -5 214 22 279 41 8 2 12 31 12 96 0 51 3 110 6 131 6 34 5 37
-17 36 -13 -1 -44 -5 -69 -10z"/>
<path d="M2825 3294 c4 -71 9 -132 11 -135 2 -4 28 -10 58 -13 29 -4 98 -18
152 -31 54 -14 99 -24 100 -22 3 3 -16 261 -20 264 -4 5 -212 50 -265 58 l-43
7 7 -128z"/>
<path d="M1459 3320 c-66 -43 -79 -56 -98 -101 -11 -29 -20 -54 -18 -56 2 -2
35 17 72 42 38 25 76 47 85 50 16 5 55 115 41 115 -4 0 -41 -22 -82 -50z"/>
<path d="M3380 3362 c0 -5 7 -29 15 -53 13 -38 23 -49 63 -68 25 -13 64 -37
85 -53 21 -17 40 -29 42 -27 2 2 -9 29 -23 59 -22 45 -40 64 -97 102 -71 48
-85 55 -85 40z"/>
<path d="M1680 3316 c-142 -54 -145 -57 -159 -122 -6 -32 -10 -58 -8 -60 7 -8
247 -15 248 -8 0 5 2 18 4 29 9 55 14 195 8 194 -5 0 -46 -15 -93 -33z"/>
<path d="M3151 3298 c4 -29 8 -90 8 -134 l1 -81 48 -13 c38 -11 126 -44 200
-77 16 -7 16 77 1 181 -9 58 -16 78 -33 89 -22 15 -208 87 -224 87 -5 0 -5
-24 -1 -52z"/>
<path d="M1439 3200 c-104 -62 -106 -70 -17 -70 l75 0 6 52 c4 28 5 53 4 55
-2 1 -32 -15 -68 -37z"/>
<path d="M3584 3215 c4 -11 13 -33 18 -50 11 -30 78 -109 86 -100 2 2 -8 26
-23 52 -32 54 -93 129 -81 98z"/>
<path d="M1300 3178 c-27 -36 -29 -44 -15 -46 21 -5 29 4 44 47 16 49 7 49
-29 -1z"/>
<path d="M2210 3143 c-83 -8 -100 -14 -100 -33 0 -20 -1 -20 203 -46 71 -8
131 -13 134 -10 3 3 6 25 7 50 l1 46 -105 -2 c-58 0 -121 -3 -140 -5z"/>
<path d="M2002 3118 c-30 -5 -52 -11 -50 -12 2 -2 36 -6 76 -10 68 -6 72 -5
72 14 0 23 -12 24 -98 8z"/>
<path d="M1504 3035 c-3 -20 -4 -38 -1 -41 5 -5 156 54 172 68 5 4 -30 8 -78
8 l-86 0 -7 -35z"/>
<path d="M2880 2775 c0 -19 5 -35 10 -35 6 0 10 16 10 35 0 19 -4 35 -10 35
-5 0 -10 -16 -10 -35z"/>
<path d="M2250 2400 c-15 -28 4 -60 34 -60 32 0 50 24 42 55 -5 20 -13 25 -36
25 -19 0 -33 -7 -40 -20z"/>
<path d="M2500 2404 c0 -11 9 -14 37 -12 52 4 56 28 4 28 -30 0 -41 -4 -41
-16z"/>
<path d="M1171 2302 c-7 -13 -16 -47 -21 -75 -6 -42 -4 -62 12 -105 11 -29 22
-51 25 -48 4 3 14 30 24 60 18 53 18 54 -5 122 -21 65 -23 67 -35 46z"/>
<path d="M1316 2269 c-68 -75 -68 -75 -34 -146 l30 -63 21 28 c11 15 36 44 55
64 l35 37 -30 66 -31 66 -46 -52z"/>
<path d="M3537 2263 c-15 -33 -27 -63 -27 -67 0 -9 91 -120 101 -124 5 -2 21
21 36 52 31 64 29 72 -41 152 l-42 47 -27 -60z"/>
<path d="M3721 2257 c-23 -67 -23 -70 -6 -125 9 -32 18 -61 19 -67 2 -5 11 8
22 30 22 48 23 145 2 195 l-15 35 -22 -68z"/>
<path d="M1541 2251 c-97 -60 -97 -60 -68 -117 28 -54 144 -234 151 -234 3 0
30 18 61 39 31 22 61 41 67 43 5 2 -14 53 -44 113 -29 61 -61 129 -70 153 -9
23 -20 42 -25 42 -4 0 -37 -18 -72 -39z"/>
<path d="M3286 2242 c-10 -26 -42 -93 -69 -149 -28 -57 -49 -104 -46 -106 28
-22 131 -88 133 -85 60 80 176 267 176 282 0 9 -150 106 -164 106 -6 0 -20
-21 -30 -48z"/>
<path d="M1412 2154 c-25 -17 -82 -97 -82 -114 0 -17 96 -153 148 -212 l45
-49 15 23 c8 13 28 37 45 55 l29 31 -40 54 c-22 29 -62 92 -89 140 -48 84 -51
86 -71 72z"/>
<path d="M3450 2093 c-24 -43 -63 -106 -87 -139 -42 -61 -52 -84 -34 -84 6 0
25 -21 43 -46 l33 -46 43 48 c24 27 68 86 99 131 65 95 64 98 -11 172 l-42 41
-44 -77z"/>
<path d="M1231 2141 c-7 -12 -15 -46 -18 -75 -5 -46 -2 -58 26 -102 21 -34 31
-43 31 -29 0 11 7 40 16 65 16 46 16 46 -13 105 -29 56 -31 58 -42 36z"/>
<path d="M3654 2103 l-30 -58 19 -55 c10 -30 20 -56 22 -58 1 -2 15 18 30 43
23 40 26 53 20 93 -3 26 -12 57 -19 70 -12 22 -13 21 -42 -35z"/>
<path d="M2303 2111 c-40 -4 -75 -10 -78 -13 -5 -5 33 -193 55 -269 l10 -36
73 4 c39 3 76 6 81 7 4 1 9 71 9 156 l0 155 -39 1 c-21 1 -72 -2 -111 -5z"/>
<path d="M2470 1961 l0 -161 54 0 c29 0 67 -3 84 -6 l30 -6 26 113 c15 63 30
133 33 155 6 49 7 49 -139 60 l-88 6 0 -161z"/>
<path d="M2155 2093 c-97 -20 -155 -37 -155 -44 0 -20 106 -265 124 -286 3 -3
137 25 142 29 2 2 -11 72 -29 156 -33 158 -32 156 -82 145z"/>
<path d="M2710 2043 c-6 -32 -22 -102 -34 -155 l-23 -97 56 -11 c31 -7 66 -14
77 -17 12 -2 24 1 27 9 3 7 27 65 55 128 74 173 75 156 -10 174 -40 8 -87 18
-105 21 l-31 6 -12 -58z"/>
<path d="M1881 2020 c-41 -16 -78 -33 -83 -38 -9 -9 96 -174 155 -246 l24 -30
62 24 c70 26 69 23 21 120 -15 30 -40 88 -55 128 -16 39 -33 72 -39 72 -6 -1
-44 -14 -85 -30z"/>
<path d="M2943 2033 c-12 -35 -91 -221 -106 -249 l-15 -29 56 -22 c68 -28 69
-28 93 0 35 41 159 228 159 240 0 12 -100 59 -153 71 -21 5 -29 2 -34 -11z"/>
<path d="M1302 1993 c-29 -73 -26 -96 19 -154 49 -63 150 -169 161 -169 4 0 8
9 8 20 0 10 5 30 11 44 10 22 5 31 -52 103 -35 43 -79 102 -98 131 -18 28 -34
52 -36 52 -1 0 -7 -12 -13 -27z"/>
<path d="M3555 1940 c-32 -46 -76 -103 -98 -127 l-39 -43 12 -50 c7 -27 15
-50 19 -50 10 0 82 76 140 149 55 70 62 101 37 170 l-12 34 -59 -83z"/>
<path d="M1211 1960 c0 -23 58 -128 59 -107 0 16 -25 71 -49 107 -10 13 -11
13 -10 0z"/>
<path d="M1702 1930 c-34 -22 -62 -43 -62 -46 0 -9 112 -138 149 -173 14 -13
38 -35 52 -48 l27 -25 43 28 c24 16 45 29 47 30 2 1 -19 30 -45 65 -27 35 -68
96 -93 136 -25 40 -48 72 -51 73 -3 0 -34 -18 -67 -40z"/>
<path d="M3097 1883 c-31 -49 -74 -110 -95 -138 l-39 -49 44 -28 c24 -16 48
-28 52 -28 11 0 180 176 209 218 l22 30 -63 41 c-35 23 -66 41 -69 41 -3 0
-31 -39 -61 -87z"/>
<path d="M3686 1926 c-28 -48 -39 -99 -13 -61 15 23 49 105 43 105 -2 0 -16
-20 -30 -44z"/>
<path d="M1593 1848 c-11 -13 -28 -36 -38 -51 l-18 -28 49 -50 c27 -28 84 -77
127 -110 l79 -59 29 36 c16 20 29 38 29 40 0 1 -25 26 -55 54 -30 29 -80 83
-112 121 -31 38 -60 69 -63 69 -4 0 -16 -10 -27 -22z"/>
<path d="M3250 1809 c-30 -35 -82 -91 -116 -124 l-62 -60 32 -37 32 -37 59 45
c75 56 195 163 195 174 0 4 -19 29 -43 55 l-42 47 -55 -63z"/>
<path d="M1294 1809 c7 -26 28 -68 46 -94 40 -58 146 -172 154 -165 2 3 1 25
-5 48 -7 33 -24 57 -67 100 -32 31 -76 80 -99 107 l-42 50 13 -46z"/>
<path d="M3604 1813 c-15 -21 -58 -69 -95 -108 -55 -58 -67 -77 -73 -115 l-7
-45 32 30 c53 50 102 105 132 149 26 39 53 113 44 122 -2 3 -17 -12 -33 -33z"/>
<path d="M2348 1783 c-29 -3 -48 -9 -48 -16 0 -21 21 -90 52 -169 29 -76 30
-78 64 -78 l34 0 0 135 0 135 -27 -2 c-16 -1 -49 -3 -75 -5z"/>
<path d="M2470 1650 l0 -130 35 0 c30 0 37 5 54 38 18 36 71 194 71 213 0 5
-36 9 -80 9 l-80 0 0 -130z"/>
<path d="M2190 1756 c-39 -9 -54 -17 -52 -27 5 -19 96 -167 125 -202 21 -25
28 -27 65 -21 41 6 41 7 28 33 -8 14 -28 72 -46 129 -35 113 -28 108 -120 88z"/>
<path d="M2633 1721 c-6 -27 -26 -84 -43 -126 -17 -43 -29 -79 -28 -81 2 -1
19 -5 38 -9 29 -5 39 -2 57 17 28 30 133 198 133 213 0 9 -100 35 -136 35 -5
0 -15 -22 -21 -49z"/>
<path d="M1511 1713 c-16 -55 -14 -62 21 -91 66 -56 225 -159 232 -151 2 2 8
18 14 35 10 31 9 32 -49 73 -33 23 -93 71 -134 107 l-74 64 -10 -37z"/>
<path d="M3360 1715 c-19 -20 -68 -62 -109 -93 -40 -31 -82 -64 -92 -72 -17
-13 -18 -19 -8 -47 6 -18 14 -33 19 -33 11 0 158 97 208 137 36 29 42 40 42
72 0 20 -6 45 -13 54 -11 16 -15 15 -47 -18z"/>
<path d="M2043 1713 c-24 -8 -43 -20 -43 -26 0 -6 46 -57 103 -114 102 -102
104 -103 135 -92 l31 11 -38 51 c-22 29 -56 82 -76 120 -40 73 -44 75 -112 50z"/>
<path d="M2784 1683 c-16 -27 -49 -80 -76 -120 l-47 -71 30 -11 c30 -10 33 -8
135 94 57 57 104 108 104 112 0 9 -85 43 -107 43 -7 0 -24 -21 -39 -47z"/>
<path d="M1923 1652 l-41 -27 39 -34 c22 -18 83 -62 136 -97 89 -59 97 -63
114 -48 16 14 10 22 -91 125 -60 60 -110 109 -112 109 -2 0 -22 -13 -45 -28z"/>
<path d="M2843 1572 c-57 -58 -103 -109 -103 -114 0 -4 11 -10 24 -14 16 -4
38 3 67 21 63 39 209 149 209 157 0 9 -77 59 -87 56 -5 0 -54 -49 -110 -106z"/>
<path d="M1503 1597 c20 -76 43 -98 180 -171 84 -44 95 -45 89 -7 -2 19 -13
33 -30 41 -28 12 -169 105 -216 141 l-29 23 6 -27z"/>
<path d="M1835 1578 c-26 -30 -26 -32 -8 -46 41 -31 281 -144 292 -138 22 14
10 35 -35 61 -26 15 -84 56 -130 91 -46 35 -86 64 -88 64 -2 0 -16 -14 -31
-32z"/>
<path d="M3005 1567 c-28 -22 -88 -65 -133 -95 -76 -49 -82 -56 -68 -70 14
-14 28 -9 149 51 74 37 140 74 147 82 9 11 8 19 -7 39 -10 14 -23 27 -28 29
-6 3 -33 -13 -60 -36z"/>
<path d="M3355 1569 c-27 -22 -81 -58 -120 -81 -38 -22 -71 -41 -71 -42 -1 -1
-5 -16 -9 -34 l-7 -33 54 27 c132 66 190 106 204 140 15 37 18 64 7 63 -5 0
-30 -18 -58 -40z"/>
<path d="M1789 1493 c-6 -19 -9 -37 -6 -39 14 -15 233 -95 272 -101 70 -9 60
19 -20 53 -36 15 -104 49 -150 75 l-84 47 -12 -35z"/>
<path d="M2985 1454 c-77 -39 -147 -73 -155 -76 -12 -5 -13 -8 -2 -19 16 -18
106 5 227 57 70 30 85 40 84 58 -2 55 -7 54 -154 -20z"/>
<path d="M2337 1485 c-38 -8 -88 -24 -112 -35 -53 -26 -105 -82 -105 -114 0
-63 97 -135 209 -156 122 -23 284 -8 366 32 87 44 124 98 101 151 -25 62 -117
108 -251 126 -94 13 -122 13 -208 -4z"/>
<path d="M1572 1461 c13 -35 212 -158 240 -149 17 6 -31 56 -60 63 -15 3 -63
26 -105 50 -43 25 -77 41 -75 36z"/>
<path d="M3244 1411 c-75 -38 -117 -65 -128 -84 l-17 -27 58 25 c74 33 141 76
178 115 16 16 27 29 24 29 -2 -1 -54 -27 -115 -58z"/>
<path d="M1790 1412 c0 -9 4 -22 8 -28 12 -19 232 -83 285 -84 44 0 4 25 -78
50 -50 15 -118 38 -152 53 -55 22 -63 24 -63 9z"/>
<path d="M3075 1405 c-56 -27 -204 -75 -229 -75 -9 0 -16 -7 -16 -15 0 -19 22
-19 107 0 128 29 190 54 197 78 12 45 11 45 -59 12z"/>
<path d="M1831 1329 c21 -40 80 -60 228 -75 52 -6 63 -4 59 7 -3 9 -38 21 -89
31 -46 9 -112 25 -146 36 -61 19 -62 19 -52 1z"/>
<path d="M3035 1325 c-22 -7 -81 -21 -132 -31 -58 -11 -94 -23 -98 -32 -4 -12
6 -13 62 -8 135 13 200 33 221 67 14 23 7 23 -53 4z"/>
<path d="M1831 1276 c2 -2 15 -9 29 -16 23 -12 24 -12 11 3 -7 10 -20 17 -29
17 -8 0 -13 -2 -11 -4z"/>
<path d="M3054 1264 c-18 -14 -18 -14 6 -3 31 14 36 19 24 19 -6 0 -19 -7 -30
-16z"/>
<path d="M1910 1253 c0 -2 19 -13 43 -23 50 -23 231 -30 209 -8 -6 6 -46 13
-87 15 -42 2 -96 8 -121 12 -24 5 -44 7 -44 4z"/>
<path d="M2970 1249 c-19 -4 -70 -9 -113 -10 -50 -1 -81 -7 -88 -16 -19 -23
145 -17 199 7 23 10 42 21 42 25 0 3 -1 5 -2 4 -2 -1 -19 -5 -38 -10z"/>
<path d="M2120 1191 l-75 -6 47 -12 c51 -14 100 -16 137 -6 l23 6 -23 13 c-13
7 -26 13 -29 12 -3 -1 -39 -4 -80 -7z"/>
<path d="M2701 1186 l-23 -13 23 -6 c37 -10 100 -7 144 8 l40 13 -67 1 c-36 1
-72 3 -80 6 -7 2 -24 -2 -37 -9z"/>
<path d="M2240 1156 l-35 -13 30 -6 c17 -4 102 -10 190 -14 147 -6 159 -5 146
10 -10 13 -24 15 -70 11 -48 -5 -169 6 -213 20 -7 3 -29 -1 -48 -8z"/>
<path d="M2622 1160 c-13 -3 -24 -9 -25 -15 -3 -14 40 -17 87 -8 l38 8 -38 11
c-22 5 -49 7 -62 4z"/>
</g>
</svg>
